P3
64 48
255
0 0 0
0 0 0
0 0 0
0 0 0
0 0 0
0 0 0
0 0 0
0 0 0
0 0 0
0 0 0
0 0 0
0 0 0
0 0 0
0 0 0
0 0 0
0 0 0
0 0 0
0 0 0
0 0 0
0 0 0
0 0 0
0 0 0
0 0 0
0 0 0
0 0 0
0 0 0
0 0 0
0 0 0
0 0 0
0 0 0
0 0 0
0 0 0
0 0 0
0 0 0
0 0 0
0 0 0
0 0 0
0 0 0
0 0 0
0 0 0
0 0 0
0 0 0
0 0 0
0 0 0
0 0 0
0 0 0
0 0 0
0 0 0
0 0 0
0 0 0
0 0 0
0 0 0
0 0 0
0 0 0
0 0 0
0 0 0
0 0 0
0 0 0
0 0 0
0 0 0
0 0 0
0 0 0
0 0 0
0 0 0
0 0 0
0 0 0
0 0 0
0 0 0
0 0 0
0 0 0
0 0 0
0 0 0
0 0 0
0 0 0
0 0 0
0 0 0
0 0 0
0 0 0
0 0 0
0 0 0
0 0 0
0 0 0
0 0 0
0 0 0
0 0 0
0 0 0
0 0 0
0 0 0
0 0 0
0 0 0
0 0 0
0 0 0
0 0 0
0 0 0
0 0 0
0 0 0
0 0 0
0 0 0
0 0 0
0 0 0
0 0 0
0 0 0
0 0 0
0 0 0
0 0 0
0 0 0
0 0 0
0 0 0
0 0 0
0 0 0
0 0 0
0 0 0
0 0 0
0 0 0
0 0 0
0 0 0
0 0 0
0 0 0
0 0 0
0 0 0
0 0 0
0 0 0
0 0 0
0 0 0
0 0 0
0 0 0
0 0 0
0 0 0
0 0 0
0 0 0
0 0 0
0 0 0
0 0 0
0 0 0
0 0 0
0 0 0
0 0 0
0 0 0
0 0 0
0 0 0
0 0 0
0 0 0
0 0 0
0 0 0
0 0 0
0 0 0
0 0 0
0 0 0
0 0 0
0 0 0
0 0 0
0 0 0
0 0 0
0 0 0
0 0 0
0 0 0
0 0 0
0 0 0
0 0 0
0 0 0
0 0 0
0 0 0
0 0 0
0 0 0
0 0 0
0 0 0
0 0 0
0 0 0
0 0 0
0 0 0
0 0 0
0 0 0
0 0 0
0 0 0
0 0 0
0 0 0
0 0 0
0 0 0
0 0 0
0 0 0
0 0 0
0 0 0
0 0 0
0 0 0
0 0 0
0 0 0
0 0 0
0 0 0
0 0 0
0 0 0
0 0 0
0 0 0
0 0 0
0 0 0
0 0 0
0 0 0
0 0 0
0 0 0
0 0 0
0 0 0
0 0 0
0 0 0
0 0 0
0 0 0
0 0 0
0 0 0
0 0 0
0 0 0
0 0 0
0 0 0
0 0 0
0 0 0
0 0 0
0 0 0
0 0 0
0 0 0
0 0 0
0 0 0
0 0 0
0 0 0
0 0 0
0 0 0
0 0 0
0 0 0
0 0 0
0 0 0
0 0 0
0 0 0
0 0 0
0 0 0
0 0 0
0 0 0
0 0 0
0 0 0
0 0 0
0 0 0
0 0 0
0 0 0
0 0 0
0 0 0
0 0 0
0 0 0
0 0 0
0 0 0
0 0 0
0 0 0
0 0 0
0 0 0
0 0 0
0 0 0
0 0 0
0 0 0
0 0 0
0 0 0
0 0 0
0 0 0
0 0 0
0 0 0
0 0 0
0 0 0
0 0 0
0 0 0
0 0 0
0 0 0
0 0 0
0 0 0
0 0 0
0 0 0
0 0 0
0 0 0
0 0 0
0 0 0
0 0 0
0 0 0
0 0 0
0 0 0
0 0 0
0 0 0
0 0 0
0 0 0
0 0 0
0 0 0
0 0 0
0 0 0
0 0 0
0 0 0
0 0 0
0 0 0
0 0 0
0 0 0
0 0 0
0 0 0
0 0 0
0 0 0
0 0 0
0 0 0
0 0 0
0 0 0
0 0 0
0 0 0
0 0 0
0 0 0
0 0 0
0 0 0
0 0 0
0 0 0
0 0 0
0 0 0
0 0 0
0 0 0
0 0 0
0 0 0
0 0 0
0 0 0
0 0 0
0 0 0
0 0 0
0 0 0
0 0 0
0 0 0
0 0 0
0 0 0
0 0 0
0 0 0
0 0 0
0 0 0
0 0 0
0 0 0
0 0 0
0 0 0
0 0 0
0 0 0
0 0 0
0 0 0
0 0 0
0 0 0
0 0 0
0 0 0
0 0 0
0 0 0
0 0 0
0 0 0
0 0 0
0 0 0
0 0 0
0 0 0
0 0 0
0 0 0
0 0 0
0 0 0
0 0 0
0 0 0
0 0 0
0 0 0
0 0 0
0 0 0
0 0 0
0 0 0
0 0 0
0 0 0
0 0 0
0 0 0
0 0 0
0 0 0
0 0 0
0 0 0
0 0 0
0 0 0
0 0 0
0 0 0
0 0 0
0 0 0
0 0 0
0 0 0
0 0 0
0 0 0
0 0 0
0 0 0
0 0 0
0 0 0
0 0 0
0 0 0
0 0 0
0 0 0
0 0 0
0 0 0
0 0 0
0 0 0
0 0 0
0 0 0
0 0 0
0 0 0
0 0 0
0 0 0
0 0 0
0 0 0
0 0 0
0 0 0
0 0 0
0 0 0
0 0 0
0 0 0
0 0 0
0 0 0
0 0 0
0 0 0
0 0 0
0 0 0
0 0 0
0 0 0
0 0 0
0 0 0
0 0 0
0 0 0
0 0 0
0 0 0
0 0 0
0 0 0
0 0 0
0 0 0
0 0 0
0 0 0
0 0 0
0 0 0
0 0 0
0 0 0
0 0 0
0 0 0
0 0 0
0 0 0
0 0 0
0 0 0
0 0 0
0 0 0
0 0 0
0 0 0
0 0 0
0 0 0
0 0 0
0 0 0
0 0 0
0 0 0
0 0 0
0 0 0
0 0 0
0 0 0
0 0 0
0 0 0
0 0 0
0 0 0
0 0 0
0 0 0
0 0 0
0 0 0
0 0 0
0 0 0
0 0 0
0 0 0
0 0 0
0 0 0
0 0 0
0 0 0
0 0 0
0 0 0
0 0 0
0 0 0
0 0 0
0 0 0
0 0 0
0 0 0
0 0 0
0 0 0
0 0 0
0 0 0
0 0 0
0 0 0
0 0 0
0 0 0
0 0 0
0 0 0
0 0 0
0 0 0
0 0 0
0 0 0
0 0 0
0 0 0
0 0 0
0 0 0
0 0 0
0 0 0
0 0 0
0 0 0
0 0 0
0 0 0
0 0 0
0 0 0
0 0 0
0 0 0
0 0 0
0 0 0
0 0 0
0 0 0
0 0 0
0 0 0
0 0 0
0 0 0
0 0 0
0 0 0
0 0 0
0 0 0
0 0 0
0 0 0
0 0 0
0 0 0
0 0 0
0 0 0
0 0 0
0 0 0
0 0 0
0 0 0
0 0 0
0 0 0
0 0 0
0 0 0
0 0 0
0 0 0
0 0 0
0 0 0
0 0 0
0 0 0
0 0 0
0 0 0
0 0 0
0 0 0
0 0 0
0 0 0
0 0 0
0 0 0
0 0 0
0 0 0
0 0 0
0 0 0
0 0 0
0 0 0
0 0 0
0 0 0
0 0 0
0 0 0
0 0 0
0 0 0
0 0 0
0 0 0
0 0 0
0 0 0
0 0 0
0 0 0
0 0 0
0 0 0
0 0 0
0 0 0
0 0 0
0 0 0
0 0 0
0 0 0
0 0 0
0 0 0
0 0 0
0 0 0
0 0 0
0 0 0
0 0 0
0 0 0
0 0 0
0 0 0
0 0 0
0 0 0
0 0 0
0 0 0
0 0 0
0 0 0
0 0 0
0 0 0
0 0 0
0 0 0
0 0 0
0 0 0
0 0 0
0 0 0
0 0 0
0 0 0
0 0 0
0 0 0
0 0 0
0 0 0
0 0 0
0 0 0
0 0 0
0 0 0
0 0 0
0 0 0
0 0 0
0 0 0
0 0 0
0 0 0
0 0 0
0 0 0
0 0 0
0 0 0
0 0 0
0 0 0
0 0 0
0 0 0
0 0 0
0 0 0
0 0 0
0 0 0
0 0 0
0 0 0
0 0 0
0 0 0
0 0 0
0 0 0
0 0 0
0 0 0
0 0 0
0 0 0
0 0 0
0 0 0
0 0 0
0 0 0
0 0 0
0 0 0
0 0 0
0 0 0
0 0 0
0 0 0
0 0 0
0 0 0
0 0 0
0 0 0
0 0 0
0 0 0
0 0 0
0 0 0
0 0 0
0 0 0
0 0 0
0 0 0
0 0 0
0 0 0
0 0 0
0 0 0
0 0 0
0 0 0
0 0 0
0 0 0
0 0 0
0 0 0
0 0 0
0 0 0
0 0 0
0 0 0
0 0 0
0 0 0
0 0 0
0 0 0
0 0 0
0 0 0
0 0 0
0 0 0
0 0 0
0 0 0
0 0 0
0 0 0
0 0 0
0 0 0
0 0 0
0 0 0
0 0 0
0 0 0
0 0 0
0 0 0
0 0 0
0 0 0
0 0 0
0 0 0
0 0 0
0 0 0
0 0 0
0 0 0
0 0 0
0 0 0
0 0 0
0 0 0
0 0 0
0 0 0
0 0 0
0 0 0
0 0 0
0 0 0
0 0 0
0 0 0
0 0 0
0 0 0
0 0 0
0 0 0
0 0 0
0 0 0
0 0 0
0 0 0
0 0 0
0 0 0
0 0 0
0 0 0
0 0 0
0 0 0
0 0 0
0 0 0
0 0 0
0 0 0
0 0 0
0 0 0
0 0 0
0 0 0
0 0 0
0 0 0
0 0 0
0 0 0
0 0 0
0 0 0
0 0 0
0 0 0
0 0 0
0 0 0
0 0 0
0 0 0
0 0 0
0 0 0
0 0 0
0 0 0
0 0 0
0 0 0
0 0 0
0 0 0
0 0 0
0 0 0
0 0 0
0 0 0
0 0 0
0 0 0
0 0 0
0 0 0
0 0 0
0 0 0
0 0 0
0 0 0
0 0 0
0 0 0
0 0 0
0 0 0
0 0 0
0 0 0
0 0 0
0 0 0
0 0 0
0 0 0
0 0 0
0 0 0
0 0 0
0 0 0
0 0 0
0 0 0
0 0 0
0 0 0
0 0 0
0 0 0
0 0 0
0 0 0
0 0 0
0 0 0
0 0 0
0 0 0
0 0 0
0 0 0
0 0 0
0 0 0
0 0 0
0 0 0
0 0 0
0 0 0
0 0 0
0 0 0
0 0 0
0 0 0
0 0 0
0 0 0
0 0 0
0 0 0
0 0 0
0 0 0
0 0 0
0 0 0
0 0 0
0 0 0
0 0 0
0 0 0
0 0 0
0 0 0
0 0 0
0 0 0
0 0 0
0 0 0
0 0 0
0 0 0
0 0 0
0 0 0
0 0 0
0 0 0
0 0 0
0 0 0
0 0 0
0 0 0
0 0 0
0 0 0
0 0 0
0 0 0
0 0 0
0 0 0
0 0 0
0 0 0
0 0 0
0 0 0
0 0 0
0 0 0
0 0 0
0 0 0
0 0 0
0 0 0
0 0 0
0 0 0
0 0 0
0 0 0
0 0 0
0 0 0
0 0 0
0 0 0
0 0 0
0 0 0
0 0 0
0 0 0
0 0 0
0 0 0
0 0 0
0 0 0
0 0 0
0 0 0
0 0 0
0 0 0
0 0 0
0 0 0
0 0 0
0 0 0
0 0 0
0 0 0
0 0 0
0 0 0
0 0 0
0 0 0
0 0 0
0 0 0
0 0 0
0 0 0
0 0 0
0 0 0
0 0 0
0 0 0
0 0 0
0 0 0
0 0 0
0 0 0
0 0 0
0 0 0
0 0 0
0 0 0
0 0 0
0 0 0
0 0 0
0 0 0
0 0 0
0 0 0
0 0 0
0 0 0
0 0 0
0 0 0
0 0 0
0 0 0
0 0 0
0 0 0
0 0 0
0 0 0
0 0 0
0 0 0
0 0 0
0 0 0
0 0 0
0 0 0
0 0 0
0 0 0
0 0 0
0 0 0
0 0 0
0 0 0
0 0 0
0 0 0
0 0 0
0 0 0
0 0 0
0 0 0
0 0 0
0 0 0
0 0 0
0 0 0
0 0 0
0 0 0
0 0 0
0 0 0
0 0 0
0 0 0
0 0 0
0 0 0
0 0 0
0 0 0
0 0 0
0 0 0
0 0 0
0 0 0
0 0 0
0 0 0
0 0 0
0 0 0
0 0 0
0 0 0
0 0 0
0 0 0
0 0 0
0 0 0
0 0 0
0 0 0
0 0 0
0 0 0
0 0 0
0 0 0
0 0 0
0 0 0
0 0 0
0 0 0
0 0 0
0 0 0
0 0 0
0 0 0
0 0 0
0 0 0
0 0 0
0 0 0
0 0 0
0 0 0
0 0 0
0 0 0
0 0 0
0 0 0
0 0 0
0 0 0
0 0 0
0 0 0
0 0 0
0 0 0
0 0 0
0 0 0
0 0 0
0 0 0
0 0 0
0 0 0
0 0 0
0 0 0
0 0 0
0 0 0
0 0 0
0 0 0
0 0 0
0 0 0
0 0 0
0 0 0
0 0 0
0 0 0
0 0 0
0 0 0
0 0 0
0 0 0
0 0 0
0 0 0
0 0 0
0 0 0
0 0 0
0 0 0
0 0 0
0 0 0
0 0 0
0 0 0
0 0 0
0 0 0
0 0 0
0 0 0
0 0 0
0 0 0
0 0 0
0 0 0
0 0 0
0 0 0
0 0 0
0 0 0
0 0 0
0 0 0
0 0 0
0 0 0
0 0 0
0 0 0
0 0 0
0 0 0
0 0 0
0 0 0
0 0 0
0 0 0
0 0 0
0 0 0
0 0 0
0 0 0
0 0 0
0 0 0
0 0 0
0 0 0
0 0 0
0 0 0
0 0 0
0 0 0
0 0 0
0 0 0
0 0 0
0 0 0
0 0 0
0 0 0
0 0 0
0 0 0
0 0 0
0 0 0
0 0 0
0 0 0
0 0 0
0 0 0
0 0 0
0 0 0
0 0 0
0 0 0
0 0 0
0 0 0
0 0 0
0 0 0
0 0 0
0 0 0
0 0 0
0 0 0
0 0 0
0 0 0
0 0 0
0 0 0
0 0 0
0 0 0
0 0 0
0 0 0
0 0 0
0 0 0
0 0 0
0 0 0
0 0 0
0 0 0
0 0 0
0 0 0
0 0 0
0 0 0
0 0 0
0 0 0
0 0 0
0 0 0
0 0 0
0 0 0
0 0 0
0 0 0
0 0 0
0 0 0
0 0 0
0 0 0
0 0 0
0 0 0
0 0 0
0 0 0
0 0 0
0 0 0
0 0 0
0 0 0
0 0 0
0 0 0
0 0 0
0 0 0
0 0 0
0 0 0
0 0 0
0 0 0
0 0 0
0 0 0
0 0 0
0 0 0
0 0 0
0 0 0
0 0 0
0 0 0
0 0 0
0 0 0
0 0 0
0 0 0
0 0 0
0 0 0
0 0 0
0 0 0
0 0 0
0 0 0
0 0 0
0 0 0
0 0 0
0 0 0
0 0 0
0 0 0
0 0 0
0 0 0
0 0 0
0 0 0
0 0 0
0 0 0
0 0 0
0 0 0
0 0 0
0 0 0
0 0 0
0 0 0
0 0 0
0 0 0
0 0 0
0 0 0
0 0 0
0 0 0
0 0 0
0 0 0
0 0 0
0 0 0
0 0 0
0 0 0
0 0 0
0 0 0
0 0 0
0 0 0
0 0 0
0 0 0
0 0 0
0 0 0
0 0 0
0 0 0
0 0 0
0 0 0
0 0 0
0 0 0
0 0 0
0 0 0
0 0 0
0 0 0
0 0 0
0 0 0
0 0 0
0 0 0
0 0 0
0 0 0
0 0 0
0 0 0
0 0 0
0 0 0
0 0 0
0 0 0
0 0 0
0 0 0
0 0 0
0 0 0
0 0 0
0 0 0
0 0 0
0 0 0
0 0 0
0 0 0
0 0 0
0 0 0
0 0 0
0 0 0
0 0 0
0 0 0
0 0 0
0 0 0
0 0 0
0 0 0
0 0 0
0 0 0
0 0 0
0 0 0
0 0 0
0 0 0
0 0 0
0 0 0
0 0 0
0 0 0
0 0 0
0 0 0
0 0 0
0 0 0
0 0 0
0 0 0
0 0 0
0 0 0
0 0 0
0 0 0
0 0 0
0 0 0
0 0 0
0 0 0
0 0 0
0 0 0
0 0 0
0 0 0
0 0 0
0 0 0
0 0 0
0 0 0
122 122 122
136 136 136
140 140 140
136 136 136
122 122 122
0 0 0
0 0 0
0 0 0
0 0 0
0 0 0
0 0 0
0 0 0
0 0 0
0 0 0
0 0 0
0 0 0
0 0 0
0 0 0
0 0 0
0 0 0
0 0 0
0 0 0
0 0 0
0 0 0
0 0 0
0 0 0
0 0 0
0 0 0
0 0 0
0 0 0
0 0 0
0 0 0
0 0 0
0 0 0
0 0 0
0 0 0
0 0 0
0 0 0
0 0 0
0 0 0
0 0 0
0 0 0
0 0 0
0 0 0
0 0 0
0 0 0
0 0 0
0 0 0
0 0 0
0 0 0
0 0 0
0 0 0
0 0 0
0 0 0
0 0 0
0 0 0
0 0 0
0 0 0
0 0 0
0 0 0
0 0 0
0 0 0
98 98 98
140 140 140
155 155 155
162 162 162
165 165 165
162 162 162
155 155 155
140 140 140
98 98 98
0 0 0
0 0 0
0 0 0
0 0 0
0 0 0
0 0 0
0 0 0
0 0 0
0 0 0
0 0 0
0 0 0
0 0 0
0 0 0
0 0 0
0 0 0
0 0 0
0 0 0
0 0 0
0 0 0
0 0 0
0 0 0
0 0 0
0 0 0
0 0 0
0 0 0
0 0 0
0 0 0
0 0 0
0 0 0
0 0 0
0 0 0
0 0 0
0 0 0
0 0 0
0 0 0
0 0 0
0 0 0
0 0 0
0 0 0
0 0 0
0 0 0
0 0 0
0 0 0
0 0 0
0 0 0
0 0 0
0 0 0
0 0 0
0 0 0
0 0 0
0 0 0
0 0 0
0 0 0
0 0 0
0 0 0
140 140 140
160 160 160
171 171 171
176 176 176
178 178 178
176 176 176
171 171 171
160 160 160
140 140 140
0 0 0
0 0 0
0 0 0
0 0 0
0 0 0
0 0 0
0 0 0
0 0 0
0 0 0
0 0 0
0 0 0
0 0 0
0 0 0
0 0 0
0 0 0
0 0 0
0 0 0
0 0 0
0 0 0
0 0 0
0 0 0
0 0 0
0 0 0
0 0 0
0 0 0
0 0 0
0 0 0
0 0 0
0 0 0
0 0 0
0 0 0
0 0 0
0 0 0
0 0 0
0 0 0
0 0 0
0 0 0
0 0 0
0 0 0
0 0 0
0 0 0
0 0 0
0 0 0
0 0 0
0 0 0
0 0 0
0 0 0
0 0 0
0 0 0
0 0 0
0 0 0
0 170 0
0 178 0
0 180 0
0 178 0
0 166 0
171 171 171
179 179 179
184 184 184
185 185 185
184 184 184
179 179 179
171 171 171
155 155 155
122 122 122
0 0 0
0 0 0
0 0 0
0 0 0
0 0 0
0 0 0
0 0 0
0 0 0
0 0 0
0 0 0
0 0 0
0 0 0
0 0 0
0 0 0
0 0 0
0 0 0
0 0 0
0 0 0
0 0 0
0 0 0
0 0 0
0 0 0
0 0 0
0 0 0
0 0 0
0 0 0
0 0 0
0 0 0
0 0 0
0 0 0
0 0 0
0 0 0
0 0 0
0 0 0
0 0 0
0 0 0
0 0 0
0 0 0
0 0 0
0 0 0
0 0 0
0 0 0
0 0 0
0 0 0
0 0 0
0 0 0
0 0 0
0 0 0
0 0 0
0 168 0
0 180 0
0 185 0
0 187 0
0 186 0
0 181 0
176 176 176
184 184 184
188 188 188
189 189 189
188 188 188
184 184 184
176 176 176
162 162 162
136 136 136
0 0 0
0 0 0
0 0 0
0 0 0
0 0 0
0 0 0
0 0 0
0 0 0
0 0 0
0 0 0
0 0 0
0 0 0
0 0 0
0 0 0
0 0 0
0 0 0
0 0 0
0 0 0
0 0 0
0 0 0
0 0 0
0 0 0
0 0 0
0 0 0
0 0 0
0 0 0
0 0 0
0 0 0
0 0 0
0 0 0
0 0 0
0 0 0
0 0 0
0 0 0
0 0 0
0 0 0
0 0 0
0 0 0
0 0 0
0 0 0
0 0 0
0 0 0
0 0 0
0 0 0
0 0 0
0 0 0
0 0 0
0 0 0
0 0 0
0 172 0
0 182 0
0 187 0
0 189 0
0 189 0
0 184 0
178 178 178
185 185 185
189 189 189
191 191 191
189 189 189
185 185 185
178 178 178
165 165 165
140 140 140
0 0 0
0 0 0
0 0 0
0 0 0
0 0 0
0 0 0
0 0 0
0 0 0
0 0 0
0 0 0
0 0 0
0 0 0
0 0 0
0 0 0
0 0 0
0 0 0
0 0 0
0 0 0
0 0 0
0 0 0
0 0 0
0 0 0
0 0 0
0 0 0
0 0 0
0 0 0
0 0 0
0 0 0
0 0 0
0 0 0
0 0 0
0 0 0
0 0 0
0 0 0
0 0 0
0 0 0
0 0 0
0 0 0
0 0 0
0 0 0
0 0 0
0 0 0
0 0 0
0 0 0
0 0 0
0 0 0
0 0 0
0 0 0
0 0 0
0 168 0
0 180 0
0 185 0
0 187 0
0 186 0
0 181 0
176 176 176
184 184 184
188 188 188
189 189 189
188 188 188
184 184 184
176 176 176
162 162 162
136 136 136
0 0 0
0 0 0
0 0 0
0 0 0
0 0 0
0 0 0
0 0 0
0 0 0
0 0 0
0 0 0
0 0 0
0 0 0
0 0 0
0 0 0
0 0 0
0 0 0
0 0 0
0 0 0
0 0 0
0 0 0
0 0 0
0 0 0
0 0 0
0 0 0
0 0 0
0 0 0
0 0 0
0 0 0
0 0 0
0 0 0
0 0 0
0 0 0
0 0 0
0 0 0
0 0 0
0 0 0
0 0 0
0 0 0
0 0 0
0 0 0
0 0 0
0 0 0
0 0 0
0 0 0
0 0 0
0 0 0
0 0 0
0 0 0
0 0 0
0 0 0
0 170 0
0 178 0
0 180 0
0 178 0
0 166 0
171 171 171
179 179 179
184 184 184
185 185 185
184 184 184
179 179 179
171 171 171
155 155 155
122 122 122
0 0 0
0 0 0
0 0 0
0 0 0
0 0 0
0 0 0
0 0 0
0 0 0
0 0 0
0 0 0
0 0 0
0 0 0
0 0 0
0 0 0
0 0 0
0 0 0
0 0 0
0 0 0
0 0 0
0 0 0
0 0 0
0 0 0
0 0 0
0 0 0
0 0 0
0 0 0
0 0 0
0 0 0
0 0 0
0 0 0
0 0 0
0 0 0
0 0 0
0 0 0
0 0 0
0 0 0
0 0 0
0 0 0
0 0 0
0 0 0
0 0 0
0 0 0
0 0 0
0 0 0
0 0 0
0 0 0
0 0 0
0 0 0
0 0 0
0 0 0
0 0 0
0 0 0
0 0 0
0 0 0
140 140 140
160 160 160
171 171 171
176 176 176
178 178 178
176 176 176
171 171 171
160 160 160
140 140 140
0 0 0
0 0 0
0 0 0
0 0 0
0 0 0
0 0 0
0 0 0
0 0 0
0 0 0
0 0 0
0 0 0
0 0 0
0 0 0
0 0 0
0 0 0
0 0 0
0 0 0
0 0 0
0 0 0
0 0 0
0 0 0
0 0 0
0 0 0
0 0 0
0 0 0
0 0 0
0 0 0
0 0 0
0 0 0
0 0 0
0 0 0
0 0 0
0 0 0
0 0 0
0 0 0
0 0 0
0 0 0
0 0 0
0 0 0
0 0 0
0 0 0
0 0 0
0 0 0
0 0 0
0 0 0
0 0 0
0 0 0
0 0 0
0 0 0
0 0 0
0 0 0
0 0 0
0 0 0
0 0 0
2 2 2
98 98 98
140 140 140
155 155 155
162 162 162
165 165 165
162 162 162
155 155 155
140 140 140
98 98 98
2 2 2
0 0 0
0 0 0
0 0 0
0 0 0
0 0 0
0 0 0
0 0 0
0 0 0
0 0 0
0 0 0
0 0 0
0 0 0
0 0 0
0 0 0
0 0 0
0 0 0
0 0 0
0 0 0
0 0 0
0 0 0
0 0 0
0 0 0
0 0 0
0 0 0
0 0 0
0 0 0
0 0 0
0 0 0
0 0 0
0 0 0
0 0 0
0 0 0
0 0 0
0 0 0
0 0 0
0 0 0
0 0 0
0 0 0
0 0 0
0 0 0
0 0 0
0 0 0
0 0 0
0 0 0
0 0 0
0 0 0
0 0 0
0 0 0
0 0 0
10 10 10
20 20 20
29 29 29
36 36 36
42 42 42
47 47 47
51 51 51
122 122 122
136 136 136
140 140 140
136 136 136
122 122 122
51 51 51
47 47 47
42 42 42
36 36 36
29 29 29
20 20 20
10 10 10
0 0 0
0 0 0
0 0 0
0 0 0
0 0 0
0 0 0
0 0 0
0 0 0
0 0 0
0 0 0
0 0 0
0 0 0
0 0 0
0 0 0
0 0 0
0 0 0
0 0 0
0 0 0
0 0 0
0 0 0
0 0 0
0 0 0
0 0 0
0 0 0
0 0 0
0 0 0
0 0 0
0 0 0
0 0 0
0 0 0
0 0 0
0 0 0
0 0 0
0 0 0
0 0 0
0 0 0
0 0 0
0 0 0
0 0 0
0 0 0
0 0 0
7 7 7
17 17 17
26 26 26
34 34 34
42 42 42
48 48 48
54 54 54
60 60 60
64 64 64
67 67 67
70 70 70
72 72 72
73 73 73
74 74 74
73 73 73
72 72 72
70 70 70
67 67 67
64 64 64
60 60 60
54 54 54
48 48 48
42 42 42
34 34 34
26 26 26
17 17 17
7 7 7
0 0 0
0 0 0
0 0 0
0 0 0
0 0 0
0 0 0
0 0 0
0 0 0
0 0 0
0 0 0
0 0 0
0 0 0
0 0 0
0 0 0
0 0 0
0 0 0
0 0 0
0 0 0
0 0 0
0 0 0
0 0 0
0 0 0
0 0 0
0 0 0
0 0 0
0 0 0
0 0 0
0 0 0
0 0 0
0 0 0
0 0 0
0 0 0
0 0 0
0 0 0
10 10 10
19 19 19
27 27 27
35 35 35
42 42 42
49 49 49
55 55 55
61 61 61
66 66 66
70 70 70
74 74 74
77 77 77
80 80 80
82 82 82
83 83 83
84 84 84
84 84 84
84 84 84
83 83 83
82 82 82
80 80 80
77 77 77
74 74 74
70 70 70
66 66 66
61 61 61
55 55 55
49 49 49
42 42 42
35 35 35
27 27 27
19 19 19
10 10 10
0 0 0
0 0 0
0 0 0
0 0 0
0 0 0
0 0 0
0 0 0
0 0 0
0 0 0
0 0 0
0 0 0
0 0 0
0 0 0
0 0 0
0 0 0
0 0 0
0 0 0
0 0 0
0 0 0
0 0 0
0 0 0
0 0 0
0 0 0
0 0 0
0 0 0
0 0 0
0 0 0
2 2 2
11 11 11
19 19 19
27 27 27
34 34 34
41 41 41
47 47 47
54 54 54
59 59 59
64 64 64
69 69 69
73 73 73
77 77 77
80 80 80
83 83 83
86 86 86
88 88 88
89 89 89
90 90 90
91 91 91
91 91 91
91 91 91
90 90 90
89 89 89
88 88 88
86 86 86
83 83 83
80 80 80
77 77 77
73 73 73
69 69 69
64 64 64
59 59 59
54 54 54
47 47 47
41 41 41
34 34 34
27 27 27
19 19 19
11 11 11
2 2 2
0 0 0
0 0 0
0 0 0
0 0 0
0 0 0
0 0 0
0 0 0
0 0 0
0 0 0
0 0 0
0 0 0
0 0 0
0 0 0
0 0 0
0 0 0
0 0 0
0 0 0
0 0 0
0 0 0
0 0 0
3 3 3
11 11 11
18 18 18
25 25 25
32 32 32
39 39 39
45 45 45
51 51 51
56 56 56
61 61 61
66 66 66
70 70 70
74 74 74
78 78 78
81 81 81
84 84 84
87 87 87
89 89 89
91 91 91
93 93 93
94 94 94
95 95 95
96 96 96
96 96 96
96 96 96
95 95 95
94 94 94
93 93 93
91 91 91
89 89 89
87 87 87
84 84 84
81 81 81
78 78 78
74 74 74
70 70 70
66 66 66
61 61 61
56 56 56
51 51 51
45 45 45
39 39 39
32 32 32
25 25 25
18 18 18
11 11 11
3 3 3
0 0 0
0 0 0
0 0 0
0 0 0
0 0 0
0 0 0
0 0 0
0 0 0
0 0 0
0 0 0
0 0 0
0 0 0
0 0 0
0 0 0
3 3 3
10 10 10
17 17 17
24 24 24
30 30 30
36 36 36
42 42 42
48 48 48
53 53 53
58 58 58
63 63 63
67 67 67
71 71 71
75 75 75
79 79 79
82 82 82
85 85 85
88 88 88
90 90 90
92 92 92
94 94 94
96 96 96
97 97 97
98 98 98
98 98 98
99 99 99
99 99 99
99 99 99
98 98 98
98 98 98
97 97 97
96 96 96
94 94 94
92 92 92
90 90 90
88 88 88
85 85 85
82 82 82
79 79 79
75 75 75
71 71 71
67 67 67
63 63 63
58 58 58
53 53 53
48 48 48
42 42 42
36 36 36
30 30 30
24 24 24
17 17 17
10 10 10
3 3 3
0 0 0
0 0 0
0 0 0
0 0 0
0 0 0
0 0 0
0 0 0
0 0 0
3 3 3
9 9 9
16 16 16
22 22 22
28 28 28
34 34 34
39 39 39
45 45 45
50 50 50
55 55 55
59 59 59
63 63 63
68 68 68
71 71 71
75 75 75
78 78 78
82 82 82
85 85 85
87 87 87
90 90 90
92 92 92
94 94 94
96 96 96
97 97 97
99 99 99
100 100 100
100 100 100
101 101 101
101 101 101
102 102 102
101 101 101
101 101 101
100 100 100
100 100 100
99 99 99
97 97 97
96 96 96
94 94 94
92 92 92
90 90 90
87 87 87
85 85 85
82 82 82
78 78 78
75 75 75
71 71 71
68 68 68
63 63 63
59 59 59
55 55 55
50 50 50
45 45 45
39 39 39
34 34 34
28 28 28
22 22 22
16 16 16
9 9 9
3 3 3
0 0 0
0 0 0
2 2 2
8 8 8
15 15 15
20 20 20
26 26 26
31 31 31
37 37 37
42 42 42
47 47 47
51 51 51
56 56 56
60 60 60
64 64 64
68 68 68
71 71 71
75 75 75
78 78 78
81 81 81
84 84 84
87 87 87
89 89 89
91 91 91
94 94 94
95 95 95
97 97 97
99 99 99
100 100 100
101 101 101
102 102 102
103 103 103
103 103 103
103 103 103
103 103 103
103 103 103
103 103 103
103 103 103
102 102 102
101 101 101
100 100 100
99 99 99
97 97 97
95 95 95
94 94 94
91 91 91
89 89 89
87 87 87
84 84 84
81 81 81
78 78 78
75 75 75
71 71 71
68 68 68
64 64 64
60 60 60
56 56 56
51 51 51
47 47 47
42 42 42
37 37 37
31 31 31
26 26 26
20 20 20
15 15 15
8 8 8
19 19 19
24 24 24
29 29 29
34 34 34
39 39 39
44 44 44
48 48 48
52 52 52
56 56 56
60 60 60
64 64 64
68 68 68
71 71 71
74 74 74
78 78 78
81 81 81
83 83 83
86 86 86
88 88 88
91 91 91
93 93 93
95 95 95
96 96 96
98 98 98
99 99 99
101 101 101
102 102 102
103 103 103
104 104 104
104 104 104
105 105 105
105 105 105
105 105 105
105 105 105
105 105 105
104 104 104
104 104 104
103 103 103
102 102 102
101 101 101
99 99 99
98 98 98
96 96 96
95 95 95
93 93 93
91 91 91
88 88 88
86 86 86
83 83 83
81 81 81
78 78 78
74 74 74
71 71 71
68 68 68
64 64 64
60 60 60
56 56 56
52 52 52
48 48 48
44 44 44
39 39 39
34 34 34
29 29 29
24 24 24
32 32 32
36 36 36
41 41 41
45 45 45
49 49 49
53 53 53
57 57 57
61 61 61
64 64 64
68 68 68
71 71 71
74 74 74
77 77 77
80 80 80
83 83 83
85 85 85
87 87 87
90 90 90
92 92 92
94 94 94
96 96 96
97 97 97
99 99 99
100 100 100
101 101 101
102 102 102
103 103 103
104 104 104
105 105 105
105 105 105
106 106 106
106 106 106
106 106 106
106 106 106
106 106 106
105 105 105
105 105 105
104 104 104
103 103 103
102 102 102
101 101 101
100 100 100
99 99 99
97 97 97
96 96 96
94 94 94
92 92 92
90 90 90
87 87 87
85 85 85
83 83 83
80 80 80
77 77 77
74 74 74
71 71 71
68 68 68
64 64 64
61 61 61
57 57 57
53 53 53
49 49 49
45 45 45
41 41 41
36 36 36
42 42 42
46 46 46
50 50 50
54 54 54
57 57 57
61 61 61
64 64 64
67 67 67
71 71 71
74 74 74
76 76 76
79 79 79
82 82 82
84 84 84
86 86 86
89 89 89
91 91 91
93 93 93
95 95 95
96 96 96
98 98 98
99 99 99
101 101 101
102 102 102
103 103 103
104 104 104
105 105 105
105 105 105
106 106 106
106 106 106
107 107 107
107 107 107
107 107 107
107 107 107
107 107 107
106 106 106
106 106 106
105 105 105
105 105 105
104 104 104
103 103 103
102 102 102
101 101 101
99 99 99
98 98 98
96 96 96
95 95 95
93 93 93
91 91 91
89 89 89
86 86 86
84 84 84
82 82 82
79 79 79
76 76 76
74 74 74
71 71 71
67 67 67
64 64 64
61 61 61
57 57 57
54 54 54
50 50 50
46 46 46
51 51 51
54 54 54
58 58 58
61 61 61
64 64 64
67 67 67
70 70 70
73 73 73
76 76 76
78 78 78
81 81 81
83 83 83
86 86 86
88 88 88
90 90 90
92 92 92
94 94 94
95 95 95
97 97 97
98 98 98
100 100 100
101 101 101
102 102 102
103 103 103
104 104 104
105 105 105
106 106 106
106 106 106
107 107 107
107 107 107
108 108 108
108 108 108
108 108 108
108 108 108
108 108 108
107 107 107
107 107 107
106 106 106
106 106 106
105 105 105
104 104 104
103 103 103
102 102 102
101 101 101
100 100 100
98 98 98
97 97 97
95 95 95
94 94 94
92 92 92
90 90 90
88 88 88
86 86 86
83 83 83
81 81 81
78 78 78
76 76 76
73 73 73
70 70 70
67 67 67
64 64 64
61 61 61
58 58 58
54 54 54
58 58 58
61 61 61
64 64 64
67 67 67
70 70 70
72 72 72
75 75 75
78 78 78
80 80 80
82 82 82
85 85 85
87 87 87
89 89 89
91 91 91
92 92 92
94 94 94
96 96 96
97 97 97
99 99 99
100 100 100
101 101 101
102 102 102
103 103 103
104 104 104
105 105 105
106 106 106
107 107 107
107 107 107
108 108 108
108 108 108
108 108 108
108 108 108
108 108 108
108 108 108
108 108 108
108 108 108
108 108 108
107 107 107
107 107 107
106 106 106
105 105 105
104 104 104
103 103 103
102 102 102
101 101 101
100 100 100
99 99 99
97 97 97
96 96 96
94 94 94
92 92 92
91 91 91
89 89 89
87 87 87
85 85 85
82 82 82
80 80 80
78 78 78
75 75 75
72 72 72
70 70 70
67 67 67
64 64 64
61 61 61
64 64 64
67 67 67
69 69 69
72 72 72
74 74 74
77 77 77
79 79 79
81 81 81
84 84 84
86 86 86
88 88 88
90 90 90
91 91 91
93 93 93
95 95 95
96 96 96
98 98 98
99 99 99
100 100 100
101 101 101
103 103 103
104 104 104
104 104 104
105 105 105
106 106 106
107 107 107
107 107 107
108 108 108
108 108 108
108 108 108
109 109 109
109 109 109
109 109 109
109 109 109
109 109 109
108 108 108
108 108 108
108 108 108
107 107 107
107 107 107
106 106 106
105 105 105
104 104 104
104 104 104
103 103 103
101 101 101
100 100 100
99 99 99
98 98 98
96 96 96
95 95 95
93 93 93
91 91 91
90 90 90
88 88 88
86 86 86
84 84 84
81 81 81
79 79 79
77 77 77
74 74 74
72 72 72
69 69 69
67 67 67
69 69 69
71 71 71
74 74 74
76 76 76
78 78 78
81 81 81
83 83 83
85 85 85
87 87 87
88 88 88
90 90 90
92 92 92
94 94 94
95 95 95
97 97 97
98 98 98
99 99 99
100 100 100
102 102 102
103 103 103
104 104 104
105 105 105
105 105 105
106 106 106
107 107 107
107 107 107
108 108 108
108 108 108
109 109 109
109 109 109
109 109 109
109 109 109
109 109 109
109 109 109
109 109 109
109 109 109
109 109 109
108 108 108
108 108 108
107 107 107
107 107 107
106 106 106
105 105 105
105 105 105
104 104 104
103 103 103
102 102 102
100 100 100
99 99 99
98 98 98
97 97 97
95 95 95
94 94 94
92 92 92
90 90 90
88 88 88
87 87 87
85 85 85
83 83 83
81 81 81
78 78 78
76 76 76
74 74 74
71 71 71
73 73 73
76 76 76
78 78 78
80 80 80
82 82 82
84 84 84
86 86 86
88 88 88
89 89 89
91 91 91
93 93 93
94 94 94
96 96 96
97 97 97
98 98 98
99 99 99
101 101 101
102 102 102
103 103 103
104 104 104
105 105 105
105 105 105
106 106 106
107 107 107
107 107 107
108 108 108
108 108 108
109 109 109
109 109 109
109 109 109
110 110 110
110 110 110
110 110 110
110 110 110
110 110 110
109 109 109
109 109 109
109 109 109
108 108 108
108 108 108
107 107 107
107 107 107
106 106 106
105 105 105
105 105 105
104 104 104
103 103 103
102 102 102
101 101 101
99 99 99
98 98 98
97 97 97
96 96 96
94 94 94
93 93 93
91 91 91
89 89 89
88 88 88
86 86 86
84 84 84
82 82 82
80 80 80
78 78 78
76 76 76
77 77 77
79 79 79
81 81 81
83 83 83
85 85 85
87 87 87
88 88 88
90 90 90
91 91 91
93 93 93
94 94 94
96 96 96
97 97 97
98 98 98
100 100 100
101 101 101
102 102 102
103 103 103
104 104 104
105 105 105
105 105 105
106 106 106
107 107 107
107 107 107
108 108 108
108 108 108
109 109 109
109 109 109
110 110 110
110 110 110
110 110 110
110 110 110
110 110 110
110 110 110
110 110 110
110 110 110
110 110 110
109 109 109
109 109 109
108 108 108
108 108 108
107 107 107
107 107 107
106 106 106
105 105 105
105 105 105
104 104 104
103 103 103
102 102 102
101 101 101
100 100 100
98 98 98
97 97 97
96 96 96
94 94 94
93 93 93
91 91 91
90 90 90
88 88 88
87 87 87
85 85 85
83 83 83
81 81 81
79 79 79
80 80 80
82 82 82
84 84 84
86 86 86
87 87 87
89 89 89
90 90 90
92 92 92
93 93 93
95 95 95
96 96 96
97 97 97
99 99 99
100 100 100
101 101 101
102 102 102
103 103 103
104 104 104
105 105 105
105 105 105
106 106 106
107 107 107
107 107 107
108 108 108
108 108 108
109 109 109
109 109 109
110 110 110
110 110 110
110 110 110
110 110 110
110 110 110
110 110 110
110 110 110
110 110 110
110 110 110
110 110 110
110 110 110
109 109 109
109 109 109
108 108 108
108 108 108
107 107 107
107 107 107
106 106 106
105 105 105
105 105 105
104 104 104
103 103 103
102 102 102
101 101 101
100 100 100
99 99 99
97 97 97
96 96 96
95 95 95
93 93 93
92 92 92
90 90 90
89 89 89
87 87 87
86 86 86
84 84 84
82 82 82
83 83 83
85 85 85
86 86 86
88 88 88
90 90 90
91 91 91
92 92 92
94 94 94
95 95 95
96 96 96
98 98 98
99 99 99
100 100 100
101 101 101
102 102 102
103 103 103
104 104 104
105 105 105
105 105 105
106 106 106
107 107 107
107 107 107
108 108 108
108 108 108
109 109 109
109 109 109
110 110 110
110 110 110
110 110 110
110 110 110
110 110 110
111 111 111
111 111 111
111 111 111
110 110 110
110 110 110
110 110 110
110 110 110
110 110 110
109 109 109
109 109 109
108 108 108
108 108 108
107 107 107
107 107 107
106 106 106
105 105 105
105 105 105
104 104 104
103 103 103
102 102 102
101 101 101
100 100 100
99 99 99
98 98 98
96 96 96
95 95 95
94 94 94
92 92 92
91 91 91
90 90 90
88 88 88
86 86 86
85 85 85
